<?xml version="1.0" encoding="utf-8"?>
<!-- Generator: Adobe Illustrator 26.0.2, SVG Export Plug-In . SVG Version: 6.00 Build 0)  -->
<svg version="1.1" id="Layer_1" xmlns="http://www.w3.org/2000/svg" xmlns:xlink="http://www.w3.org/1999/xlink" x="0px" y="0px"
	 viewBox="0 0 612 792" style="enable-background:new 0 0 612 792;" xml:space="preserve">
<style type="text/css">
	.st0{fill:none;stroke:#000000;stroke-width:3;stroke-miterlimit:10;}
</style>
<g>
	<g>
		<path d="M286.99,425.27v-60.99h51.77v-15.57h-66.86v92.12h68.24v-15.57H286.99z M290.57,398.9v0.18h12.26v-0.18H290.57z"/>
		<path d="M290.57,398.9v0.18h12.26v-0.18H290.57z"/>
		<path d="M335.86,405.46c0,3.6-0.84,6.59-2.53,9c-1.68,2.42-4.01,4.22-6.97,5.42c-2.97,1.21-6.43,1.81-10.39,1.81h-25.41v-19.21
			h12.26v8.75h12.67c2.41,0,4.28-0.54,5.62-1.62c1.34-1.08,2-2.64,2-4.69c0-1.9-0.7-3.35-2.12-4.35c-1.42-1-3.39-1.5-5.89-1.5
			h-12.27v-0.18h-12.26v-9.36h22.93c2.13,0,3.8-0.51,5.01-1.54c1.2-1.02,1.8-2.38,1.8-4.07c0-1.74-0.61-3.11-1.84-4.12
			c-1.24-1-3.08-1.5-5.53-1.5h-10.11v7.64h-12.26v-18.1h24.61c5.72,0,10.1,1.17,13.15,3.5c3.04,2.33,4.56,5.6,4.56,9.8
			c0,5.34-2.3,9.02-6.89,11.07c2.99,1.13,5.39,2.82,7.18,5.08C334.97,399.57,335.86,402.29,335.86,405.46z"/>
		<rect x="290.57" y="398.9" width="12.26" height="0.18"/>
	</g>
	<circle class="st0" cx="306.01" cy="395.51" r="66.67"/>
</g>
</svg>
