<?xml version="1.0" encoding="utf-8"?>
<!-- Generator: Adobe Illustrator 26.0.2, SVG Export Plug-In . SVG Version: 6.00 Build 0)  -->
<svg version="1.1" id="Layer_1" xmlns="http://www.w3.org/2000/svg" xmlns:xlink="http://www.w3.org/1999/xlink" x="0px" y="0px"
	 viewBox="0 0 612 792" style="enable-background:new 0 0 612 792;" xml:space="preserve">
<style type="text/css">
	.st0{fill:none;stroke:#000000;stroke-width:3;stroke-miterlimit:10;}
</style>
<g>
	<g>
		<path d="M334.95,360.36c-2.02-3.33-4.87-5.98-8.56-7.95c-3.69-1.98-8.08-2.96-13.16-2.96h-36.05v36.01h5.52v-30.61h29.6
			c6.24,0,11.12,1.66,14.67,4.99c3.55,3.34,5.33,7.56,5.33,12.64c0,3.42-0.88,6.52-2.63,9.27c-0.27,0.42-0.54,0.82-0.83,1.21
			c-0.66,0.88-1.39,1.68-2.2,2.42h6.63c0.21-0.26,0.42-0.52,0.61-0.79c2.72-3.7,4.08-7.94,4.08-12.76
			C337.98,367.51,336.96,363.7,334.95,360.36z"/>
		<path d="M313.11,396.15h-16.49v0.08h17.86v-0.06C314.03,396.17,313.57,396.15,313.11,396.15z"/>
		<path d="M342.84,415.9c0,7.45-2.41,13.59-7.24,18.42c-2.89,2.9-6.78,4.92-11.67,6.08c-3.26,0.78-6.95,1.16-11.09,1.16h-35.66
			v-40.09h5.52v34.69h30.13c8.6,0,14.78-1.88,18.55-5.66c3.77-3.77,5.66-8.51,5.66-14.21c0-5.96-2.1-10.81-6.31-14.54
			c-3.73-3.3-8.75-5.14-15.07-5.51c-0.39-0.03-0.79-0.05-1.19-0.06c-0.45-0.01-0.91-0.02-1.37-0.02h-16.49v22.26h26.79v5.39h-32.19
			V365.2h32.6v5.31h-27.19v21.23h17.23c0.57,0,1.14,0.02,1.71,0.03c0.5,0.01,0.99,0.04,1.47,0.07c2.03,0.12,3.96,0.37,5.77,0.74
			c-0.03,0.01-0.05,0.02-0.08,0.03c6.59,1.49,11.59,4.32,15.01,8.49C341.14,405.26,342.84,410.2,342.84,415.9z"/>
		<path d="M330.27,385.37h-3.61c0.81-0.74,1.53-1.54,2.2-2.42l2.07,2.07C330.71,385.15,330.5,385.26,330.27,385.37z"/>
		<path d="M313.52,441.32c3.87,0,7.34-0.31,10.42-0.92c-3.26,0.78-6.95,1.16-11.09,1.16h-35.66v-0.25H313.52z"/>
	</g>
	<circle class="st0" cx="306.01" cy="395.51" r="66.67"/>
</g>
</svg>
