<?xml version="1.0" encoding="utf-8"?>
<!-- Generator: Adobe Illustrator 26.0.2, SVG Export Plug-In . SVG Version: 6.00 Build 0)  -->
<svg version="1.1" id="Layer_1" xmlns="http://www.w3.org/2000/svg" xmlns:xlink="http://www.w3.org/1999/xlink" x="0px" y="0px"
	 viewBox="0 0 612 792" style="enable-background:new 0 0 612 792;" xml:space="preserve">
<style type="text/css">
	.st0{fill:#ED6A83;stroke:#86C661;stroke-miterlimit:10;}
	.st1{fill:none;stroke:#EA3158;stroke-width:3;stroke-miterlimit:10;}
</style>
<g>
	<g>
		<path class="st0" d="M289.87,423.59v-58.17h49.37v-14.85h-63.77v87.86h65.08v-14.85H289.87z M293.28,398.44v0.17h11.7v-0.17
			H293.28z"/>
		<path class="st0" d="M293.28,398.44v0.17h11.7v-0.17H293.28z"/>
		<path class="st0" d="M336.48,404.69c0,3.43-0.8,6.29-2.41,8.58c-1.6,2.3-3.82,4.03-6.65,5.17c-2.83,1.16-6.13,1.73-9.9,1.73
			h-24.24v-18.32h11.7v8.35h12.08c2.3,0,4.08-0.51,5.36-1.54c1.28-1.03,1.91-2.52,1.91-4.47c0-1.81-0.67-3.2-2.02-4.15
			c-1.35-0.95-3.23-1.43-5.62-1.43h-11.7v-0.17h-11.7v-8.92h21.87c2.03,0,3.63-0.48,4.77-1.47c1.15-0.97,1.71-2.27,1.71-3.88
			c0-1.66-0.58-2.97-1.75-3.93c-1.18-0.95-2.94-1.43-5.27-1.43h-9.64v7.29h-11.7v-17.26h23.47c5.45,0,9.63,1.12,12.54,3.34
			c2.9,2.22,4.35,5.34,4.35,9.35c0,5.09-2.19,8.61-6.57,10.56c2.86,1.08,5.14,2.69,6.84,4.84
			C335.63,399.08,336.48,401.67,336.48,404.69z"/>
		<rect x="293.28" y="398.44" class="st0" width="11.7" height="0.17"/>
	</g>
	<circle class="st1" cx="306.01" cy="395.51" r="66.67"/>
</g>
</svg>
